<svg width="47" height="47" viewBox="0 0 47 47" fill="none" xmlns="http://www.w3.org/2000/svg">
<mask id="mask0_60_1756" style="mask-type:alpha" maskUnits="userSpaceOnUse" x="0" y="0" width="47" height="47">
<rect width="47" height="47" fill="#D9D9D9"/>
</mask>
<g mask="url(#mask0_60_1756)">
<path d="M23.4998 41.0073C23.1182 41.0073 22.7367 40.9416 22.3551 40.81C21.9732 40.6782 21.6279 40.4742 21.3192 40.1981C19.5619 38.5785 17.9174 36.9107 16.3856 35.1945C14.8542 33.4787 13.523 31.7634 12.3921 30.0485C11.2608 28.3337 10.3657 26.634 9.70673 24.9495C9.04775 23.2647 8.71826 21.6376 8.71826 20.0683C8.71826 16.9327 9.51351 14.0989 11.104 11.5667C12.6945 9.03461 14.9334 7.1799 17.8206 6.00262C18.7067 5.61846 19.6389 5.34103 20.6171 5.17033C21.595 4.99963 22.5834 4.89796 23.5825 4.86532C23.9986 4.86532 24.3476 5.00044 24.6292 5.27069C24.9106 5.54094 25.0513 5.88479 25.0513 6.30224C25.0513 6.72002 24.9106 7.07954 24.6292 7.3808C24.3476 7.68205 23.9986 7.83268 23.5825 7.83268C22.7649 7.83268 21.9643 7.89992 21.1806 8.03439C20.3969 8.16854 19.6108 8.39505 18.8223 8.71393C16.5124 9.67286 14.7405 11.1868 13.5064 13.2558C12.2726 15.3245 11.6558 17.5953 11.6558 20.0683C11.6558 22.436 12.672 25.1946 14.7044 28.3443C16.7368 31.4939 19.6686 34.7836 23.4998 38.2133C25.4029 36.5112 27.0858 34.8422 28.5483 33.2063C30.0106 31.5705 31.2438 29.9831 32.2481 28.4441C33.0138 27.2567 33.6573 26.076 34.1786 24.902C34.6995 23.7283 35.0515 22.5703 35.2346 21.4279C35.3276 20.8656 35.538 20.4721 35.8657 20.2475C36.193 20.0227 36.5388 19.9367 36.9031 19.9895C37.267 20.0421 37.5826 20.1907 37.8499 20.4355C38.1176 20.6803 38.225 21.0111 38.1721 21.4279C37.9485 23.3262 37.3974 25.1517 36.5188 26.9044C35.6398 28.6574 34.6092 30.3382 33.427 31.9466C32.0862 33.7316 30.7046 35.3347 29.2822 36.7558C27.8602 38.1769 26.6657 39.318 25.699 40.179C25.3948 40.4551 25.049 40.6622 24.6615 40.8002C24.2744 40.9383 23.8872 41.0073 23.4998 41.0073ZM23.5032 23.2355C24.4775 23.2355 25.3104 22.8885 26.002 22.1946C26.694 21.5007 27.0399 20.6666 27.0399 19.6923C27.0399 18.7181 26.693 17.885 25.9991 17.193C25.3052 16.5014 24.4709 16.1556 23.4963 16.1556C22.5221 16.1556 21.6891 16.5026 20.9975 17.1965C20.3056 17.8904 19.9596 18.7246 19.9596 19.6992C19.9596 20.6735 20.3065 21.5064 21.0004 22.198C21.6943 22.8897 22.5286 23.2355 23.5032 23.2355ZM35.2498 9.79102V14.1973C35.2498 14.6134 35.3906 14.9623 35.6723 15.244C35.9539 15.5253 36.3029 15.666 36.719 15.666C37.1355 15.666 37.4842 15.5253 37.7652 15.244C38.0466 14.9623 38.1873 14.6134 38.1873 14.1973V9.79102H42.5935C43.0097 9.79102 43.3584 9.65018 43.6398 9.3685C43.9214 9.08683 44.0623 8.73792 44.0623 8.32178C44.0623 7.9053 43.9214 7.55656 43.6398 7.27554C43.3584 6.99419 43.0097 6.85352 42.5935 6.85352H38.1873V2.44727C38.1873 2.03112 38.0464 1.68237 37.7648 1.40103C37.4831 1.11935 37.1342 0.978516 36.718 0.978516C36.3015 0.978516 35.9528 1.11935 35.6718 1.40103C35.3904 1.68237 35.2498 2.03112 35.2498 2.44727V6.85352H30.8435C30.4274 6.85352 30.0785 6.99435 29.7968 7.27603C29.5154 7.5577 29.3748 7.90661 29.3748 8.32276C29.3748 8.73923 29.5154 9.08797 29.7968 9.369C30.0785 9.65034 30.4274 9.79102 30.8435 9.79102H35.2498Z" fill="white" fill-opacity="0.6"/>
</g>
</svg>
