<svg width="39" height="26" viewBox="0 0 39 26" fill="none" xmlns="http://www.w3.org/2000/svg">
<path d="M0.895996 23.7604V14.4583C0.895996 13.7279 1.06931 13.0193 1.41593 12.3326C1.76223 11.6458 2.2417 11.0815 2.85433 10.6396V5.64583C2.85433 4.27761 3.32825 3.11958 4.27608 2.17175C5.22391 1.22392 6.38194 0.75 7.75016 0.75H16.0731C16.7862 0.75 17.4251 0.888715 17.9898 1.16615C18.5548 1.44358 19.0582 1.82708 19.5002 2.31667C19.9421 1.82708 20.4455 1.44358 21.0105 1.16615C21.5752 0.888715 22.2141 0.75 22.9272 0.75H31.2502C32.6184 0.75 33.7764 1.22392 34.7242 2.17175C35.6721 3.11958 36.146 4.27761 36.146 5.64583V10.6396C36.7586 11.0815 37.2381 11.6458 37.5844 12.3326C37.931 13.0193 38.1043 13.7279 38.1043 14.4583V23.7604C38.1043 24.1766 37.9635 24.5253 37.6818 24.8067C37.4001 25.0883 37.0512 25.2292 36.6351 25.2292C36.2186 25.2292 35.8699 25.0883 35.5888 24.8067C35.3075 24.5253 35.1668 24.1766 35.1668 23.7604V21.3125H3.8335V23.7604C3.8335 24.1766 3.69266 24.5253 3.41099 24.8067C3.12931 25.0883 2.7804 25.2292 2.36426 25.2292C1.94778 25.2292 1.59904 25.0883 1.31802 24.8067C1.03667 24.5253 0.895996 24.1766 0.895996 23.7604ZM20.9689 9.5625H33.2085V5.64583C33.2085 5.09097 33.0208 4.62587 32.6455 4.25052C32.2701 3.87517 31.805 3.6875 31.2502 3.6875H22.9272C22.3724 3.6875 21.9073 3.87517 21.5319 4.25052C21.1566 4.62587 20.9689 5.09097 20.9689 5.64583V9.5625ZM5.79183 9.5625H18.0314V5.64583C18.0314 5.09097 17.8437 4.62587 17.4684 4.25052C17.093 3.87517 16.6279 3.6875 16.0731 3.6875H7.75016C7.1953 3.6875 6.7302 3.87517 6.35485 4.25052C5.9795 4.62587 5.79183 5.09097 5.79183 5.64583V9.5625ZM3.8335 18.375H35.1668V14.4583C35.1668 13.9035 34.9792 13.4384 34.6038 13.063C34.2285 12.6877 33.7634 12.5 33.2085 12.5H5.79183C5.23697 12.5 4.77186 12.6877 4.39652 13.063C4.02117 13.4384 3.8335 13.9035 3.8335 14.4583V18.375Z" fill="white" fill-opacity="0.6"/>
</svg>
