<svg width="37" height="41" viewBox="0 0 37 41" fill="none" xmlns="http://www.w3.org/2000/svg">
<path d="M15.4998 41.0073C15.1182 41.0073 14.7367 40.9416 14.3551 40.81C13.9732 40.6782 13.6279 40.4742 13.3192 40.1981C11.5619 38.5785 9.91737 36.9107 8.38563 35.1945C6.85421 33.4787 5.52303 31.7634 4.39209 30.0485C3.26083 28.3337 2.36571 26.634 1.70673 24.9495C1.04775 23.2647 0.718262 21.6376 0.718262 20.0683C0.718262 16.9327 1.51351 14.0989 3.104 11.5667C4.69449 9.03461 6.93336 7.1799 9.8206 6.00262C10.7067 5.61846 11.6389 5.34103 12.6171 5.17033C13.595 4.99963 14.5834 4.89796 15.5825 4.86532C15.9986 4.86532 16.3476 5.00044 16.6292 5.27069C16.9106 5.54094 17.0513 5.88479 17.0513 6.30224C17.0513 6.72002 16.9106 7.07954 16.6292 7.3808C16.3476 7.68205 15.9986 7.83268 15.5825 7.83268C14.7649 7.83268 13.9643 7.89992 13.1806 8.03439C12.3969 8.16854 11.6108 8.39505 10.8223 8.71393C8.51243 9.67286 6.74046 11.1868 5.50639 13.2558C4.27264 15.3245 3.65576 17.5953 3.65576 20.0683C3.65576 22.436 4.67197 25.1946 6.7044 28.3443C8.73682 31.4939 11.6686 34.7836 15.4998 38.2133C17.4029 36.5112 19.0858 34.8422 20.5483 33.2063C22.0106 31.5705 23.2438 29.9831 24.2481 28.4441C25.0138 27.2567 25.6573 26.076 26.1786 24.902C26.6995 23.7283 27.0515 22.5703 27.2346 21.4279C27.3276 20.8656 27.538 20.4721 27.8657 20.2475C28.193 20.0227 28.5388 19.9367 28.9031 19.9895C29.267 20.0421 29.5826 20.1907 29.8499 20.4355C30.1176 20.6803 30.225 21.0111 30.1721 21.4279C29.9485 23.3262 29.3974 25.1517 28.5188 26.9044C27.6398 28.6574 26.6092 30.3382 25.427 31.9466C24.0862 33.7316 22.7046 35.3347 21.2822 36.7558C19.8602 38.1769 18.6657 39.318 17.699 40.179C17.3948 40.4551 17.049 40.6622 16.6615 40.8002C16.2744 40.9383 15.8872 41.0073 15.4998 41.0073ZM15.5032 23.2355C16.4775 23.2355 17.3104 22.8885 18.002 22.1946C18.694 21.5007 19.0399 20.6666 19.0399 19.6923C19.0399 18.7181 18.693 17.885 17.9991 17.193C17.3052 16.5014 16.4709 16.1556 15.4963 16.1556C14.5221 16.1556 13.6891 16.5026 12.9975 17.1965C12.3056 17.8904 11.9596 18.7246 11.9596 19.6992C11.9596 20.6735 12.3065 21.5064 13.0004 22.198C13.6943 22.8897 14.5286 23.2355 15.5032 23.2355ZM27.2498 9.79102V14.1973C27.2498 14.6134 27.3906 14.9623 27.6723 15.244C27.9539 15.5253 28.3029 15.666 28.719 15.666C29.1355 15.666 29.4842 15.5253 29.7652 15.244C30.0466 14.9623 30.1873 14.6134 30.1873 14.1973V9.79102H34.5935C35.0097 9.79102 35.3584 9.65018 35.6398 9.3685C35.9214 9.08683 36.0623 8.73792 36.0623 8.32178C36.0623 7.9053 35.9214 7.55656 35.6398 7.27554C35.3584 6.99419 35.0097 6.85352 34.5935 6.85352H30.1873V2.44727C30.1873 2.03112 30.0464 1.68237 29.7648 1.40103C29.4831 1.11935 29.1342 0.978516 28.718 0.978516C28.3015 0.978516 27.9528 1.11935 27.6718 1.40103C27.3904 1.68237 27.2498 2.03112 27.2498 2.44727V6.85352H22.8435C22.4274 6.85352 22.0785 6.99435 21.7968 7.27603C21.5154 7.5577 21.3748 7.90661 21.3748 8.32276C21.3748 8.73923 21.5154 9.08797 21.7968 9.369C22.0785 9.65034 22.4274 9.79102 22.8435 9.79102H27.2498Z" fill="white" fill-opacity="0.6"/>
</svg>
