<svg width="20" height="20" viewBox="0 0 20 20" fill="none" xmlns="http://www.w3.org/2000/svg">
<mask id="mask0_60_1587" style="mask-type:alpha" maskUnits="userSpaceOnUse" x="0" y="0" width="20" height="20">
<rect width="20" height="20" fill="#D9D9D9"/>
</mask>
<g mask="url(#mask0_60_1587)">
<path d="M9.05186 10.9477H4.94499C4.67901 10.9477 4.4545 10.8562 4.27145 10.6733C4.08853 10.4903 3.99707 10.2658 3.99707 9.99978C3.99707 9.73381 4.08853 9.50929 4.27145 9.32624C4.4545 9.14332 4.67901 9.05186 4.94499 9.05186H9.05186V4.94499C9.05186 4.67901 9.14332 4.4545 9.32624 4.27144C9.50929 4.08853 9.73381 3.99707 9.99978 3.99707C10.2658 3.99707 10.4903 4.08853 10.6733 4.27144C10.8562 4.4545 10.9477 4.67901 10.9477 4.94499V9.05186H15.0546C15.3205 9.05186 15.5451 9.14332 15.7281 9.32624C15.911 9.50929 16.0025 9.73381 16.0025 9.99978C16.0025 10.2658 15.911 10.4903 15.7281 10.6733C15.5451 10.8562 15.3205 10.9477 15.0546 10.9477H10.9477V15.0546C10.9477 15.3205 10.8562 15.5451 10.6733 15.7281C10.4903 15.911 10.2658 16.0025 9.99978 16.0025C9.73381 16.0025 9.50929 15.911 9.32624 15.7281C9.14332 15.5451 9.05186 15.3205 9.05186 15.0546V10.9477Z" fill="#1D1D1D"/>
</g>
</svg>
