<svg width="47" height="47" viewBox="0 0 47 47" fill="none" xmlns="http://www.w3.org/2000/svg">
<mask id="mask0_60_1747" style="mask-type:alpha" maskUnits="userSpaceOnUse" x="0" y="0" width="47" height="47">
<rect width="47" height="47" fill="#D9D9D9"/>
</mask>
<g mask="url(#mask0_60_1747)">
<path d="M15.4405 36.2298V38.0751C15.4405 38.6505 15.2389 39.1396 14.8358 39.5423C14.4328 39.9451 13.9432 40.1465 13.3671 40.1465C12.7913 40.1465 12.3026 39.9451 11.9008 39.5423C11.499 39.1396 11.2981 38.6505 11.2981 38.0751V34.8139C10.6855 34.3495 10.1181 33.6923 9.59583 32.8424C9.07361 31.9925 8.8125 31.0378 8.8125 29.9783V11.7507C8.8125 9.38041 9.9906 7.64549 12.3468 6.54589C14.7027 5.44629 18.4202 4.89648 23.4995 4.89648C28.7622 4.89648 32.5258 5.42491 34.7903 6.48176C37.0551 7.53828 38.1875 9.29457 38.1875 11.7507V29.9783C38.1875 31.0378 37.9264 31.9925 37.4042 32.8424C36.8819 33.6923 36.3145 34.3495 35.7019 34.8139V38.0751C35.7019 38.6505 35.5003 39.1396 35.0972 39.5423C34.6938 39.9451 34.2043 40.1465 33.6285 40.1465C33.0524 40.1465 32.5635 39.9451 32.1617 39.5423C31.7603 39.1396 31.5595 38.6505 31.5595 38.0751V36.2298H15.4405ZM11.75 20.5632H35.25V13.2571H11.75V20.5632ZM16.6502 30.9575C17.3627 30.9575 17.9669 30.708 18.4627 30.2089C18.9588 29.7102 19.2068 29.1046 19.2068 28.3921C19.2068 27.6796 18.9573 27.0754 18.4583 26.5796C17.9595 26.0835 17.3539 25.8355 16.6414 25.8355C15.9289 25.8355 15.3248 26.085 14.829 26.584C14.3329 27.0828 14.0848 27.6884 14.0848 28.4009C14.0848 29.1134 14.3343 29.7175 14.8334 30.2133C15.3321 30.7094 15.9377 30.9575 16.6502 30.9575ZM30.3586 30.9575C31.0711 30.9575 31.6752 30.708 32.171 30.2089C32.6671 29.7102 32.9152 29.1046 32.9152 28.3921C32.9152 27.6796 32.6657 27.0754 32.1666 26.5796C31.6679 26.0835 31.0623 25.8355 30.3498 25.8355C29.6373 25.8355 29.0331 26.085 28.5373 26.584C28.0412 27.0828 27.7932 27.6884 27.7932 28.4009C27.7932 29.1134 28.0427 29.7175 28.5417 30.2133C29.0405 30.7094 29.6461 30.9575 30.3586 30.9575ZM12.2925 10.3196H34.8285C34.414 9.53888 33.3645 8.92934 31.68 8.491C29.9951 8.05299 27.2886 7.83398 23.5602 7.83398C19.8923 7.83398 17.2159 8.06311 15.5311 8.52136C13.8462 8.97961 12.7667 9.57902 12.2925 10.3196ZM15.6667 33.2923H31.3333C32.4104 33.2923 33.3325 32.9088 34.0995 32.1418C34.8665 31.3748 35.25 30.4527 35.25 29.3757V23.5007H11.75V29.3757C11.75 30.4527 12.1335 31.3748 12.9005 32.1418C13.6675 32.9088 14.5896 33.2923 15.6667 33.2923Z" fill="white" fill-opacity="0.6"/>
</g>
</svg>
