<svg width="47" height="47" viewBox="0 0 47 47" fill="none" xmlns="http://www.w3.org/2000/svg">
<mask id="mask0_60_1753" style="mask-type:alpha" maskUnits="userSpaceOnUse" x="0" y="0" width="47" height="47">
<rect width="47" height="47" fill="#D9D9D9"/>
</mask>
<g mask="url(#mask0_60_1753)">
<path d="M4.896 34.7604V25.4583C4.896 24.7279 5.06931 24.0193 5.41593 23.3326C5.76223 22.6458 6.2417 22.0815 6.85433 21.6396V16.6458C6.85433 15.2776 7.32825 14.1196 8.27608 13.1717C9.22391 12.2239 10.3819 11.75 11.7502 11.75H20.0731C20.7862 11.75 21.4251 11.8887 21.9898 12.1661C22.5548 12.4436 23.0582 12.8271 23.5002 13.3167C23.9421 12.8271 24.4455 12.4436 25.0105 12.1661C25.5752 11.8887 26.2141 11.75 26.9272 11.75H35.2502C36.6184 11.75 37.7764 12.2239 38.7242 13.1717C39.6721 14.1196 40.146 15.2776 40.146 16.6458V21.6396C40.7586 22.0815 41.2381 22.6458 41.5844 23.3326C41.931 24.0193 42.1043 24.7279 42.1043 25.4583V34.7604C42.1043 35.1766 41.9635 35.5253 41.6818 35.8067C41.4001 36.0883 41.0512 36.2292 40.6351 36.2292C40.2186 36.2292 39.8699 36.0883 39.5888 35.8067C39.3075 35.5253 39.1668 35.1766 39.1668 34.7604V32.3125H7.8335V34.7604C7.8335 35.1766 7.69266 35.5253 7.41099 35.8067C7.12931 36.0883 6.7804 36.2292 6.36426 36.2292C5.94778 36.2292 5.59904 36.0883 5.31802 35.8067C5.03667 35.5253 4.896 35.1766 4.896 34.7604ZM24.9689 20.5625H37.2085V16.6458C37.2085 16.091 37.0208 15.6259 36.6455 15.2505C36.2701 14.8752 35.805 14.6875 35.2502 14.6875H26.9272C26.3724 14.6875 25.9073 14.8752 25.5319 15.2505C25.1566 15.6259 24.9689 16.091 24.9689 16.6458V20.5625ZM9.79183 20.5625H22.0314V16.6458C22.0314 16.091 21.8437 15.6259 21.4684 15.2505C21.093 14.8752 20.6279 14.6875 20.0731 14.6875H11.7502C11.1953 14.6875 10.7302 14.8752 10.3549 15.2505C9.9795 15.6259 9.79183 16.091 9.79183 16.6458V20.5625ZM7.8335 29.375H39.1668V25.4583C39.1668 24.9035 38.9792 24.4384 38.6038 24.063C38.2285 23.6877 37.7634 23.5 37.2085 23.5H9.79183C9.23697 23.5 8.77186 23.6877 8.39652 24.063C8.02117 24.4384 7.8335 24.9035 7.8335 25.4583V29.375Z" fill="white" fill-opacity="0.6"/>
</g>
</svg>
