<svg width="20" height="20" viewBox="0 0 20 20" fill="none" xmlns="http://www.w3.org/2000/svg">
<mask id="mask0_60_1775" style="mask-type:alpha" maskUnits="userSpaceOnUse" x="0" y="0" width="20" height="20">
<rect width="20" height="20" fill="#D9D9D9"/>
</mask>
<g mask="url(#mask0_60_1775)">
<path d="M9.05186 10.9487H4.94499C4.67901 10.9487 4.4545 10.8572 4.27145 10.6743C4.08853 10.4912 3.99707 10.2667 3.99707 10.0008C3.99707 9.73478 4.08853 9.51027 4.27145 9.32721C4.4545 9.1443 4.67901 9.05284 4.94499 9.05284H9.05186V4.94596C9.05186 4.67999 9.14332 4.45548 9.32624 4.27242C9.50929 4.0895 9.73381 3.99805 9.99978 3.99805C10.2658 3.99805 10.4903 4.0895 10.6733 4.27242C10.8562 4.45548 10.9477 4.67999 10.9477 4.94596V9.05284H15.0546C15.3205 9.05284 15.5451 9.1443 15.7281 9.32721C15.911 9.51027 16.0025 9.73478 16.0025 10.0008C16.0025 10.2667 15.911 10.4912 15.7281 10.6743C15.5451 10.8572 15.3205 10.9487 15.0546 10.9487H10.9477V15.0555C10.9477 15.3215 10.8562 15.546 10.6733 15.7291C10.4903 15.912 10.2658 16.0035 9.99978 16.0035C9.73381 16.0035 9.50929 15.912 9.32624 15.7291C9.14332 15.546 9.05186 15.3215 9.05186 15.0555V10.9487Z" fill="white"/>
</g>
</svg>
