<svg width="26" height="26" viewBox="0 0 26 26" fill="none" xmlns="http://www.w3.org/2000/svg">
<circle cx="13" cy="13" r="13" fill="#1F4993"/>
<mask id="mask0_60_1772" style="mask-type:alpha" maskUnits="userSpaceOnUse" x="3" y="3" width="20" height="20">
<rect x="3" y="3" width="20" height="20" fill="#D9D9D9"/>
</mask>
<g mask="url(#mask0_60_1772)">
<path d="M12.0519 13.9487H7.94499C7.67901 13.9487 7.4545 13.8572 7.27145 13.6743C7.08853 13.4912 6.99707 13.2667 6.99707 13.0008C6.99707 12.7348 7.08853 12.5103 7.27145 12.3272C7.4545 12.1443 7.67901 12.0528 7.94499 12.0528H12.0519V7.94596C12.0519 7.67999 12.1433 7.45548 12.3262 7.27242C12.5093 7.0895 12.7338 6.99805 12.9998 6.99805C13.2658 6.99805 13.4903 7.0895 13.6733 7.27242C13.8562 7.45548 13.9477 7.67999 13.9477 7.94596V12.0528H18.0546C18.3205 12.0528 18.5451 12.1443 18.7281 12.3272C18.911 12.5103 19.0025 12.7348 19.0025 13.0008C19.0025 13.2667 18.911 13.4912 18.7281 13.6743C18.5451 13.8572 18.3205 13.9487 18.0546 13.9487H13.9477V18.0555C13.9477 18.3215 13.8562 18.546 13.6733 18.7291C13.4903 18.912 13.2658 19.0035 12.9998 19.0035C12.7338 19.0035 12.5093 18.912 12.3262 18.7291C12.1433 18.546 12.0519 18.3215 12.0519 18.0555V13.9487Z" fill="white"/>
</g>
</svg>
