<svg width="47" height="47" viewBox="0 0 47 47" fill="none" xmlns="http://www.w3.org/2000/svg">
<mask id="mask0_60_1750" style="mask-type:alpha" maskUnits="userSpaceOnUse" x="0" y="0" width="47" height="47">
<rect width="47" height="47" fill="#D9D9D9"/>
</mask>
<g mask="url(#mask0_60_1750)">
<path d="M9.45292 40.5971C9.09977 40.5971 8.75396 40.5241 8.41549 40.3782C8.07703 40.2327 7.79013 40.0432 7.55481 39.8098L6.39107 38.6461C6.10221 38.3576 6.03024 38.0331 6.17516 37.6728C6.32008 37.3125 6.59539 37.1323 7.00109 37.1323H39.9613C40.367 37.1323 40.6423 37.3125 40.7872 37.6728C40.9321 38.0331 40.8602 38.3576 40.5713 38.6461L39.4076 39.8098C39.1723 40.0432 38.8854 40.2327 38.5469 40.3782C38.2084 40.5241 37.8626 40.5971 37.5095 40.5971H9.45292ZM6.85421 34.9855C7.06278 34.4482 7.33335 33.9436 7.66594 33.4717C7.99853 32.9997 8.38073 32.5604 8.81255 32.1537V17.1725H8.02187C7.68438 17.1725 7.40548 17.0623 7.18517 16.842C6.96453 16.6217 6.85421 16.3429 6.85421 16.0058C6.85421 15.669 6.96453 15.3901 7.18517 15.1691C7.40548 14.9481 7.68438 14.8376 8.02187 14.8376H8.81255V13.1804H8.02187C7.68438 13.1804 7.40548 13.0702 7.18517 12.8499C6.96453 12.6296 6.85421 12.3509 6.85421 12.0137C6.85421 11.6769 6.96453 11.398 7.18517 11.177C7.40548 10.9561 7.68438 10.8456 8.02187 10.8456H8.81255V9.18834H8.02187C7.68438 9.18834 7.40548 9.07818 7.18517 8.85787C6.96453 8.63756 6.85421 8.35898 6.85421 8.02215C6.85421 7.68499 6.96453 7.40593 7.18517 7.18496C7.40548 6.964 7.68438 6.85352 8.02187 6.85352H19.7719C20.7452 6.85352 21.5784 7.20014 22.2717 7.89339C22.9649 8.58664 23.3116 9.42007 23.3116 10.3937V10.8456H38.9782C39.3157 10.8456 39.5946 10.9557 39.8149 11.176C40.0356 11.3964 40.1459 11.6751 40.1459 12.0123C40.1459 12.3491 40.0356 12.628 39.8149 12.849C39.5946 13.0699 39.3157 13.1804 38.9782 13.1804H23.3116V13.6264C23.3116 14.6069 22.9649 15.4431 22.2717 16.135C21.5784 16.8267 20.7452 17.1725 19.7719 17.1725H16.0432V29.8341C16.6509 29.9242 17.2492 30.0691 17.838 30.2688C18.4268 30.4686 18.9735 30.7555 19.4781 31.1295C20.063 29.0834 21.2103 27.4351 22.9199 26.1847C24.6298 24.9343 26.5544 24.3091 28.6935 24.3091C31.3187 24.3091 33.5572 25.209 35.4092 27.0087C37.2614 28.8084 38.1875 31.0104 38.1875 33.6146V34.9855H6.85421ZM22.3779 32.0485H34.8285C34.4868 30.6473 33.7491 29.4967 32.6156 28.5969C31.482 27.6967 30.1747 27.2466 28.6935 27.2466C27.1719 27.2466 25.8243 27.6866 24.6506 28.5665C23.4769 29.4465 22.7193 30.6071 22.3779 32.0485ZM16.0432 10.8456H20.3745V9.79102C20.3745 9.61542 20.3179 9.47099 20.2047 9.35774C20.0917 9.24481 19.9475 9.18834 19.7719 9.18834H16.0432V10.8456ZM16.0432 14.8376H19.7719C19.9475 14.8376 20.0917 14.7812 20.2047 14.6682C20.3179 14.555 20.3745 14.4106 20.3745 14.235V13.1804H16.0432V14.8376ZM11.1474 10.8456H13.7084V9.18834H11.1474V10.8456ZM11.1474 14.8376H13.7084V13.1804H11.1474V14.8376ZM11.1474 30.5307C11.5619 30.3173 11.9774 30.1541 12.3938 30.0412C12.8106 29.9279 13.2488 29.8367 13.7084 29.7675V17.1725H11.1474V30.5307Z" fill="white" fill-opacity="0.6"/>
</g>
</svg>
