<svg width="17" height="17" viewBox="0 0 17 17" fill="none" xmlns="http://www.w3.org/2000/svg">
<mask id="mask0_60_1689" style="mask-type:alpha" maskUnits="userSpaceOnUse" x="0" y="0" width="17" height="17">
<rect x="17" width="17" height="17" transform="rotate(90 17 0)" fill="#D9D9D9"/>
</mask>
<g mask="url(#mask0_60_1689)">
<path d="M8.50014 2.25598L3.16444 7.59168C3.02372 7.73241 2.85803 7.801 2.66737 7.79745C2.47659 7.79379 2.31084 7.7216 2.17012 7.58088C2.0294 7.44004 1.95904 7.27429 1.95904 7.08363C1.95904 6.89297 2.0294 6.72722 2.17012 6.58638L7.59294 1.15275C7.72103 1.02466 7.86453 0.929748 8.02343 0.868005C8.18234 0.806262 8.34124 0.77539 8.50014 0.77539C8.65905 0.77539 8.81795 0.806262 8.97685 0.868005C9.13575 0.929748 9.27925 1.02466 9.40734 1.15276L14.8411 6.58638C14.9819 6.72722 15.0504 6.8948 15.0467 7.08912C15.0431 7.28344 14.9709 7.45096 14.8302 7.59168C14.6894 7.73241 14.5237 7.80277 14.3329 7.80277C14.1423 7.80277 13.9766 7.73241 13.8358 7.59168L8.50014 2.25598Z" fill="#D9E74C"/>
</g>
</svg>
