<svg width="300" height="161" viewBox="0 0 300 161" fill="none" xmlns="http://www.w3.org/2000/svg">
<g clip-path="url(#clip0_61_72)">
<path d="M61.7624 103.604C56.3009 103.614 51.8049 109.562 51.8049 117.005C51.8049 124.448 56.3009 130.337 61.7624 130.357C67.2743 130.327 71.7343 124.378 71.7343 117.005C71.7343 109.632 67.2743 103.614 61.7624 103.604ZM61.6255 124.248C58.7722 124.248 56.6107 120.998 56.6107 117.015C56.6107 113.033 58.9163 109.712 61.7552 109.712C64.594 109.712 66.8204 112.953 66.8204 117.015C66.8204 121.078 64.4859 124.248 61.6183 124.248H61.6255Z" fill="#004289"/>
<path d="M16.053 94.3737C17.5805 96.4702 19.3242 98.2959 21.0318 99.4795L21.2119 99.61L24.1516 94.7649L23.8706 94.5442C21.075 92.4377 18.8846 89.7794 17.458 86.419C16.0386 83.1187 15.3109 79.2668 15.3109 74.6825V70.3691H10.0512V74.2211C10.0512 79.1966 9.23697 83.1087 7.7239 86.5394C6.02349 90.3311 3.5089 93.3906 0.288202 96.2194L0.00720215 96.4602L3.20628 101.064L3.3792 100.924C5.27415 99.4795 7.29159 97.2627 9.04964 94.795C10.5699 92.6383 11.8885 90.3111 12.681 88.1142C13.452 90.2609 14.6408 92.4577 16.0602 94.3436L16.053 94.3737Z" fill="#004289"/>
<path d="M10.3682 127.195H32.4015V106.24H10.3682V127.195ZM15.3109 112.159H27.4371V121.287H15.3109V112.159Z" fill="#004289"/>
<path d="M32.4807 69.1348H27.5884V103.843H32.4807V88.4849H38.2232V82.3157H32.4807V69.1348Z" fill="#004289"/>
<path d="M157.432 96.1498C159.039 98.0959 160.883 99.731 162.613 100.784L162.793 100.905L165.437 95.9191L165.156 95.7285C162.634 93.9229 160.379 91.696 158.765 88.9876C157.115 86.209 156.135 82.8686 156.135 78.8361V77.6524H163.42V71.6738H143.627V77.6524H150.911V79.0868C150.911 82.7482 150.032 86.1688 148.591 89.128C146.891 92.6791 144.405 95.548 141.999 97.3937L141.682 97.6345L144.931 102.319L145.111 102.199C146.869 100.814 148.8 98.7178 150.458 96.3705C151.783 94.4345 152.972 92.3882 153.7 90.3518C154.579 92.328 155.926 94.3141 157.432 96.1599V96.1498Z" fill="#004289"/>
<path d="M192.867 112.3H210.678V127.196H215.628V106.371H192.867V112.3Z" fill="#004289"/>
<path d="M205.159 88.4355C205.159 85.1553 204.107 82.1359 202.536 79.8287H207.428V73.9204H198.091V67.4102H192.788V73.9204H183.226V79.8287H188.22C186.699 82.1359 185.633 85.1252 185.633 88.4355C185.633 95.7482 189.963 101.697 195.382 101.717C200.8 101.697 205.159 95.7482 205.166 88.4355H205.159ZM190.352 88.1646C190.352 84.112 192.809 80.6814 195.374 80.6814C197.939 80.6814 200.389 84.1321 200.396 88.1646C200.396 92.147 197.939 95.5877 195.374 95.5977C192.802 95.5877 190.352 92.147 190.352 88.1646Z" fill="#004289"/>
<path d="M215.628 69.1348H210.736V103.963H215.628V90.6717H221.378V84.5125H215.628V69.1348Z" fill="#004289"/>
<path d="M174.126 69.1348H169.227V103.963H174.126V88.4849H179.869V82.3157H174.126V69.1348Z" fill="#004289"/>
<path d="M285.467 95.3978H268.91V77.8432H281.526V71.6641H263.953V101.396H285.467V95.3978Z" fill="#004289"/>
<path d="M67.7498 79.4669H60.0475V85.5758H67.7498V105.056H72.6493V69.1348H67.7498V79.4669Z" fill="#004289"/>
<path d="M55.2994 95.2762C56.8268 97.3727 58.6065 99.1984 60.3213 100.432L60.5087 100.583L63.4556 95.7377L63.1674 95.5069C60.3718 93.4806 58.2246 90.8224 56.7908 87.5121C55.3282 84.2319 54.6005 80.2395 54.6005 75.6453V70.3789H49.3263V75.2139C49.3263 80.1894 48.5265 84.0915 47.0423 87.462C45.3419 91.324 42.7912 94.3935 39.5633 97.2122L39.2896 97.453L42.4958 102.077L42.6543 101.937C44.5565 100.492 46.5235 98.3959 48.2743 95.9985C49.8523 93.8016 51.178 91.4243 51.9706 89.1171C52.7271 91.2036 53.8871 93.3502 55.2849 95.2762H55.2994Z" fill="#004289"/>
<path d="M163.614 103.604C158.153 103.614 153.657 109.562 153.649 117.005C153.657 124.378 158.153 130.337 163.614 130.357C169.119 130.327 173.586 124.378 173.586 117.005C173.586 109.632 169.119 103.614 163.614 103.604ZM163.47 124.248C160.624 124.248 158.455 120.998 158.455 117.015C158.455 113.033 160.754 109.712 163.614 109.712C166.475 109.712 168.672 112.953 168.679 117.015C168.672 120.998 166.338 124.248 163.47 124.248Z" fill="#004289"/>
<path d="M276.108 108.699H271.151V127.197H294.322V121.098H276.108V108.699Z" fill="#004289"/>
<path d="M294.207 85.2247V69.1348H289.315V111.958H294.207V91.3738H300V85.2247H294.207Z" fill="#004289"/>
<path d="M252.763 84.8235H248.642V70.1178H244.016V125.7H248.642V91.5143H252.763V127.195H257.569V69.1348H252.763V84.8235Z" fill="#004289"/>
<path d="M237.215 92.5281C236.112 89.1677 235.658 85.4261 235.658 80.8117V78.6149H241.213V72.3555H225.059V78.6149H230.795V80.9221C230.795 85.2856 230.384 88.8467 229.39 92.157C228.244 95.9487 226.313 99.3794 223.237 103.031L223.02 103.312L226.061 107.505L226.248 107.304C227.776 105.729 229.375 103.452 230.715 101.105C231.839 99.1186 232.791 97.0722 233.396 95.2666C234.008 97.0221 234.966 99.0383 236.083 100.924C237.387 103.131 238.85 105.228 240.255 106.471L240.45 106.652L243.007 102.389L242.806 102.128C240.053 98.7876 238.346 95.8083 237.222 92.5181L237.215 92.5281Z" fill="#004289"/>
<path d="M13.9203 147.228C11.5714 146.064 11.1319 145.282 11.1319 143.938C11.1319 142.594 11.8092 141.53 13.4159 141.53C14.5904 141.53 15.3829 142.062 16.2331 143.045L17.0689 141.611C16.0818 140.517 15.0731 139.865 13.5024 139.865C11.3048 139.865 9.82057 141.42 9.82057 144.048C9.82057 146.406 10.6852 147.539 13.2142 148.813C15.3613 149.886 16.017 150.759 16.017 152.264C16.017 153.999 15.0443 155.062 13.4808 155.062C12.2703 155.062 11.2472 154.29 10.361 153.106L9.48914 154.461C10.4114 155.755 11.8452 156.718 13.4375 156.718C15.8873 156.718 17.3283 154.731 17.3283 152.173C17.3283 149.616 16.5285 148.522 13.9275 147.208L13.9203 147.228Z" fill="#004289"/>
<path d="M22.6529 143.967C21.5073 143.967 20.4626 144.358 19.6916 144.94L20.1671 146.364C20.8877 145.782 21.6442 145.421 22.5665 145.421C23.849 145.421 24.483 146.304 24.483 148.14V149.594C23.9643 149.193 23.1717 148.882 22.2783 148.882C20.5346 148.882 18.9062 150.056 18.9062 152.814C18.9062 155.773 20.3545 156.726 21.7235 156.726C22.9844 156.726 23.849 155.914 24.4758 154.981V156.476H25.7295V147.929C25.7295 145.08 24.5407 143.967 22.6529 143.967ZM24.4758 153.466C23.9426 154.489 23.078 155.312 21.9396 155.312C20.866 155.312 20.1383 154.51 20.1383 152.684C20.1383 151.149 20.9165 150.266 22.2062 150.266C23.2798 150.266 23.8994 150.537 24.4686 150.979V153.456L24.4758 153.466Z" fill="#004289"/>
<path d="M38.3745 149.303V156.476H39.6354V149.002C39.6354 145.421 38.5186 143.967 36.7173 143.967C35.2907 143.967 34.5702 144.89 34.0514 146.063C33.6335 144.89 32.877 143.967 31.6377 143.967C30.5929 143.967 29.8508 144.659 29.4041 145.722V144.228H28.136V156.486H29.4041V149.313C29.4041 146.595 30.1606 145.481 31.3711 145.481C32.5816 145.481 33.266 146.505 33.266 149.313V156.486H34.5269V149.313C34.5269 146.595 35.2907 145.481 36.4867 145.481C37.762 145.481 38.3817 146.505 38.3817 149.313L38.3745 149.303Z" fill="#004289"/>
<path d="M44.679 149.364C43.1875 148.421 42.7408 148.009 42.7408 146.976C42.7408 146.093 43.274 145.451 44.2035 145.451C45.1329 145.451 45.7093 145.802 46.3938 146.555L47.0999 145.261C46.4298 144.488 45.4932 143.967 44.2755 143.967C42.6832 143.967 41.5304 145.221 41.5304 147.086C41.5304 149.053 42.2653 149.795 44.0305 150.848C45.5868 151.781 46.1128 152.343 46.1128 153.346C46.1128 154.54 45.5436 155.242 44.3331 155.242C43.4613 155.242 42.6399 154.74 41.9338 153.888L41.1917 155.172C42.0347 156.115 43.0867 156.736 44.2971 156.736C45.8246 156.736 47.3161 155.693 47.3161 153.286C47.3161 151.089 46.3434 150.417 44.679 149.374V149.364Z" fill="#004289"/>
<path d="M54.6725 151.379C54.6725 154.068 53.707 155.201 52.4966 155.201C51.0772 155.201 50.4071 154.018 50.4071 151.379V144.217H49.1534V151.68C49.1534 155.201 50.371 156.716 52.23 156.716C53.3468 156.716 54.1609 155.994 54.6653 154.97V156.465H55.9262V144.207H54.6653V151.369L54.6725 151.379Z" fill="#004289"/>
<path d="M64.8245 156.476V149.002C64.8245 145.471 63.5997 143.967 61.7335 143.967C60.6311 143.967 59.8098 144.679 59.3126 145.722V144.228H58.0445V156.486H59.3126V149.313C59.3126 146.635 60.2565 145.481 61.4885 145.481C62.8935 145.481 63.5708 146.675 63.5708 149.313V156.486H64.8317L64.8245 156.476Z" fill="#004289"/>
<path d="M68.7873 159.656L69.1908 160.99C72.462 160.839 73.6508 159.074 73.6508 155.382V144.218H72.3971V145.592C71.7775 144.609 71.0281 143.967 69.9186 143.967C68.0668 143.967 66.5898 146.194 66.5898 150.547C66.5898 154.901 67.9876 156.726 69.7528 156.726C70.9417 156.726 71.7847 155.914 72.4043 154.981V155.613C72.4043 158.462 71.7342 159.535 68.7946 159.656H68.7873ZM70.0627 155.212C68.6721 155.212 67.8291 153.607 67.8291 150.527C67.8291 147.227 68.5496 145.481 70.0122 145.481C71.057 145.481 71.9072 146.304 72.3899 147.317V153.446C71.7703 154.53 70.9993 155.212 70.0555 155.212H70.0627Z" fill="#004289"/>
<path d="M87.5351 148.19C87.5351 142.583 85.2655 140.125 82.1817 140.125H79.0763V156.476H81.9439C85.0854 156.476 87.5351 154.118 87.5351 148.18V148.19ZM80.3876 141.78H82.0808C84.7828 141.78 86.2238 144.077 86.2238 148.25C86.2238 152.955 84.6459 154.821 82.1097 154.821H80.3804V141.78H80.3876Z" fill="#004289"/>
<path d="M90.8927 145.742V144.227H89.6318V156.485H90.8927V149.293C90.8927 146.946 91.5772 145.591 92.8092 145.591C93.3929 145.591 93.7819 145.772 94.1278 146.053L94.4448 144.287C94.1494 144.097 93.7243 143.986 93.0758 143.986C92.1319 143.986 91.289 144.769 90.8999 145.762L90.8927 145.742Z" fill="#004289"/>
<path d="M101.974 155.312L101.391 154.048C100.584 154.8 99.9784 155.212 98.9481 155.212C97.5142 155.212 96.6208 153.557 96.4983 150.948H102.371C102.414 150.658 102.428 150.407 102.428 149.985C102.428 146.485 101.182 143.967 98.8832 143.967C96.7865 143.967 95.2446 146.384 95.2446 150.276C95.2446 155.101 97.2044 156.726 98.8184 156.726C100.144 156.726 100.922 156.235 101.981 155.312H101.974ZM98.8688 145.471C100.411 145.471 101.153 147.127 101.254 149.514H96.4983C96.6424 146.776 97.5575 145.471 98.8688 145.471Z" fill="#004289"/>
<path d="M106.614 156.726C107.875 156.726 108.747 155.914 109.367 154.981V156.476H110.628V147.929C110.628 145.08 109.439 143.967 107.537 143.967C106.391 143.967 105.353 144.358 104.582 144.94L105.058 146.364C105.778 145.782 106.535 145.421 107.457 145.421C108.747 145.421 109.367 146.304 109.367 148.14V149.594C108.855 149.193 108.062 148.882 107.183 148.882C105.433 148.882 103.797 150.056 103.797 152.814C103.797 155.773 105.245 156.726 106.614 156.726ZM107.104 150.276C108.171 150.276 108.797 150.547 109.367 150.989V153.466C108.833 154.489 107.976 155.312 106.845 155.312C105.714 155.312 105.044 154.51 105.044 152.684C105.044 151.149 105.822 150.266 107.111 150.266L107.104 150.276Z" fill="#004289"/>
<path d="M123.265 149.303V156.476H124.519V149.002C124.519 145.421 123.402 143.967 121.601 143.967C120.174 143.967 119.454 144.89 118.935 146.063C118.517 144.89 117.768 143.967 116.521 143.967C115.477 143.967 114.742 144.659 114.288 145.722V144.228H113.034V156.486H114.288V149.313C114.288 146.595 115.044 145.481 116.255 145.481C117.465 145.481 118.15 146.505 118.15 149.313V156.486H119.403V149.313C119.403 146.595 120.174 145.481 121.37 145.481C122.638 145.481 123.265 146.505 123.265 149.313V149.303Z" fill="#004289"/>
<path d="M133.936 147.228C131.587 146.064 131.155 145.292 131.155 143.938C131.155 142.583 131.825 141.53 133.432 141.53C134.613 141.53 135.399 142.062 136.249 143.045L137.085 141.62C136.098 140.527 135.089 139.875 133.518 139.875C131.321 139.875 129.844 141.42 129.844 144.048C129.844 146.405 130.694 147.549 133.237 148.803C135.384 149.886 136.04 150.749 136.04 152.263C136.04 153.989 135.067 155.062 133.504 155.062C132.293 155.062 131.27 154.28 130.377 153.096L129.505 154.44C130.427 155.754 131.861 156.707 133.446 156.707C135.889 156.707 137.337 154.721 137.337 152.163C137.337 149.605 136.537 148.512 133.936 147.198V147.228Z" fill="#004289"/>
<path d="M142.683 145.481C143.569 145.481 144.16 145.923 144.794 146.725L145.551 145.411C144.859 144.569 143.951 143.967 142.762 143.967C140.918 143.967 138.973 145.873 138.973 150.417C138.973 154.69 140.738 156.736 142.683 156.736C143.915 156.736 144.773 156.084 145.515 155.031L144.758 153.918C144.16 154.73 143.584 155.222 142.734 155.222C141.17 155.222 140.248 153.286 140.248 150.266C140.248 147.247 141.314 145.481 142.69 145.481H142.683Z" fill="#004289"/>
<path d="M150.94 143.968C149.838 143.968 149.009 144.68 148.505 145.723V139.955H147.251V156.486H148.505V149.314C148.505 146.626 149.47 145.482 150.688 145.482C152.1 145.482 152.763 146.666 152.763 149.314V156.486H154.024V149.003C154.024 145.482 152.799 143.968 150.933 143.968H150.94Z" fill="#004289"/>
<path d="M159.644 143.967C157.504 143.967 155.789 146.194 155.789 150.367C155.789 154.54 157.432 156.736 159.579 156.736C161.726 156.736 163.441 154.429 163.441 150.266C163.441 146.103 161.784 143.967 159.644 143.967ZM159.622 155.222C158.095 155.222 157.065 153.547 157.065 150.317C157.065 147.086 158.095 145.481 159.622 145.481C161.15 145.481 162.18 147.097 162.18 150.317C162.18 153.537 161.143 155.222 159.622 155.222Z" fill="#004289"/>
<path d="M166.604 139.955H165.343V156.486H166.604V139.955Z" fill="#004289"/>
<path d="M172.354 143.967C171.215 143.967 170.171 144.368 169.407 144.95L169.875 146.384C170.596 145.792 171.352 145.441 172.275 145.441C173.564 145.441 174.184 146.334 174.184 148.14V149.604C173.665 149.193 172.873 148.892 171.994 148.892C170.243 148.892 168.614 150.066 168.614 152.824C168.614 155.794 170.055 156.736 171.432 156.736C172.693 156.736 173.564 155.934 174.184 154.991V156.486H175.445V147.939C175.445 145.08 174.256 143.967 172.354 143.967ZM174.184 153.466C173.651 154.489 172.786 155.312 171.655 155.312C170.589 155.312 169.861 154.51 169.861 152.694C169.861 151.149 170.639 150.286 171.929 150.286C173.002 150.286 173.622 150.547 174.191 150.989V153.466H174.184Z" fill="#004289"/>
<path d="M179.105 145.742V144.218H177.844V156.486H179.105V149.293C179.105 146.956 179.79 145.582 181.014 145.582C181.605 145.582 181.987 145.762 182.34 146.043L182.657 144.268C182.362 144.087 181.937 143.967 181.288 143.967C180.344 143.967 179.501 144.749 179.105 145.742Z" fill="#004289"/>
<path d="M187.492 149.364C185.993 148.421 185.546 148 185.546 146.966C185.546 146.084 186.087 145.442 187.009 145.442C187.931 145.442 188.522 145.803 189.207 146.545L189.913 145.261C189.235 144.489 188.306 143.957 187.096 143.957C185.496 143.957 184.343 145.211 184.343 147.087C184.343 149.053 185.085 149.795 186.851 150.838C188.407 151.771 188.933 152.333 188.933 153.336C188.933 154.54 188.356 155.232 187.16 155.232C186.281 155.232 185.46 154.73 184.754 153.878L184.019 155.162C184.855 156.105 185.914 156.727 187.124 156.727C188.645 156.727 190.143 155.683 190.143 153.276C190.143 151.069 189.171 150.407 187.506 149.354L187.492 149.364Z" fill="#004289"/>
<path d="M195.871 143.968C194.762 143.968 193.94 144.68 193.436 145.723V139.955H192.182V156.486H193.436V149.314C193.436 146.626 194.394 145.482 195.619 145.482C197.024 145.482 197.694 146.666 197.694 149.314V156.486H198.955V149.003C198.955 145.482 197.73 143.968 195.871 143.968Z" fill="#004289"/>
<path d="M202.695 144.219H201.441V156.487H202.695V144.219Z" fill="#004289"/>
<path d="M202.097 139.523C201.578 139.523 201.174 140.085 201.174 140.797C201.174 141.469 201.578 142.031 202.097 142.031C202.558 142.031 202.969 141.469 202.969 140.797C202.969 140.085 202.558 139.523 202.097 139.523Z" fill="#004289"/>
<path d="M209.143 143.967C207.954 143.967 207.111 144.779 206.492 145.722V144.228H205.238V161H206.492V155.111C207.111 156.084 207.868 156.736 208.978 156.736C210.822 156.736 212.299 154.489 212.299 150.156C212.299 145.823 210.901 143.967 209.143 143.967ZM208.877 155.222C207.839 155.222 206.982 154.399 206.492 153.376V147.257C207.111 146.194 207.89 145.481 208.826 145.481C210.224 145.481 211.067 147.097 211.067 150.176C211.067 153.466 210.347 155.222 208.877 155.222Z" fill="#004289"/>
<path d="M218.964 141.79H224.555V140.135H217.653V156.486H218.964V148.862H222.185V147.217H218.964V141.79Z" fill="#004289"/>
<path d="M228.381 143.967C226.241 143.967 224.519 146.194 224.519 150.367C224.519 154.54 226.169 156.736 228.309 156.736C230.449 156.736 232.171 154.429 232.171 150.266C232.171 146.103 230.528 143.967 228.381 143.967ZM228.345 155.222C226.817 155.222 225.794 153.547 225.794 150.317C225.794 147.086 226.817 145.481 228.345 145.481C229.872 145.481 230.917 147.097 230.917 150.317C230.917 153.537 229.88 155.222 228.345 155.222Z" fill="#004289"/>
<path d="M239.124 151.381C239.124 154.069 238.173 155.213 236.948 155.213C235.536 155.213 234.866 154.029 234.866 151.381V144.219H233.605V151.692C233.605 155.223 234.83 156.738 236.696 156.738C237.791 156.738 238.612 156.025 239.117 154.992V156.487H240.378V144.219H239.117V151.381H239.124Z" fill="#004289"/>
<path d="M246.185 143.967C245.082 143.967 244.261 144.679 243.75 145.722V144.228H242.489V156.496H243.75V149.323C243.75 146.635 244.708 145.492 245.933 145.492C247.345 145.492 248.015 146.675 248.015 149.323V156.496H249.269V149.012C249.269 145.492 248.044 143.977 246.178 143.977L246.185 143.967Z" fill="#004289"/>
<path d="M256.848 145.603C256.229 144.62 255.472 143.968 254.363 143.968C252.518 143.968 251.041 146.194 251.041 150.558C251.041 154.922 252.432 156.737 254.197 156.737C255.386 156.737 256.222 155.935 256.848 154.992V156.486H258.109V139.955H256.848V145.613V145.603ZM256.848 153.447C256.229 154.52 255.451 155.222 254.514 155.222C253.123 155.222 252.28 153.618 252.28 150.528C252.28 147.228 253.001 145.482 254.464 145.482C255.508 145.482 256.351 146.295 256.848 147.328V153.447Z" fill="#004289"/>
<path d="M263.448 143.967C262.303 143.967 261.265 144.368 260.494 144.95L260.963 146.384C261.69 145.792 262.447 145.441 263.362 145.441C264.652 145.441 265.271 146.334 265.271 148.14V149.604C264.752 149.193 263.96 148.892 263.074 148.892C261.337 148.892 259.702 150.066 259.702 152.824C259.702 155.794 261.15 156.736 262.526 156.736C263.787 156.736 264.652 155.934 265.271 154.991V156.486H266.532V147.939C266.532 145.08 265.343 143.967 263.448 143.967ZM265.271 153.466C264.738 154.489 263.881 155.312 262.735 155.312C261.669 155.312 260.948 154.51 260.948 152.694C260.948 151.149 261.719 150.286 263.009 150.286C264.082 150.286 264.702 150.547 265.271 150.989V153.466Z" fill="#004289"/>
<path d="M270.545 139.955H269.284V144.228H268.197V145.703H269.284V153.979C269.284 156.005 269.875 156.747 270.97 156.747C271.633 156.747 272.102 156.617 272.592 156.326L272.678 154.811C272.275 155.042 271.943 155.162 271.432 155.162C270.762 155.162 270.545 154.791 270.545 153.688V145.703H272.729V144.228H270.545V139.955Z" fill="#004289"/>
<path d="M275.582 139.523C275.063 139.523 274.652 140.085 274.652 140.797C274.652 141.469 275.063 142.031 275.582 142.031C276.057 142.031 276.461 141.469 276.461 140.797C276.461 140.085 276.057 139.523 275.582 139.523Z" fill="#004289"/>
<path d="M276.18 144.219H274.926V156.487H276.18V144.219Z" fill="#004289"/>
<path d="M281.944 143.967C279.804 143.967 278.089 146.194 278.089 150.367C278.089 154.54 279.732 156.736 281.879 156.736C284.026 156.736 285.734 154.429 285.734 150.266C285.734 146.103 284.091 143.967 281.944 143.967ZM281.901 155.222C280.38 155.222 279.357 153.547 279.357 150.317C279.357 147.086 280.38 145.481 281.901 145.481C283.421 145.481 284.473 147.097 284.473 150.317C284.473 153.537 283.435 155.222 281.901 155.222Z" fill="#004289"/>
<path d="M291.239 143.967C290.129 143.967 289.308 144.679 288.803 145.722V144.228H287.542V156.496H288.803V149.323C288.803 146.635 289.761 145.492 290.986 145.492C292.406 145.492 293.069 146.675 293.069 149.323V156.496H294.322V149.012C294.322 145.492 293.097 143.977 291.239 143.977V143.967Z" fill="#004289"/>
<path d="M161.229 27.2145L151.553 21.6372L161.229 16.0599L159.507 10.2819L149.831 15.8593L153.844 2.38741L149.694 0L145.688 13.4718L141.675 0L137.532 2.38741L141.538 15.8593L131.861 10.2819L130.146 16.0599L139.816 21.6372L130.146 27.2145L131.861 32.9925L141.538 27.4051L137.532 40.8769L141.682 43.2744L145.688 29.8026L149.694 43.2744L153.844 40.8769L149.831 27.4051L159.507 32.9925L161.229 27.2145Z" fill="#009FE3"/>
<path d="M98.595 64.8213H105.036V40.877H83.0247V48.942H98.595V64.8213Z" fill="#009FE3"/>
<path d="M123.712 64.8213H130.146V40.877H108.135V48.942H123.712V64.8213Z" fill="#009FE3"/>
<path d="M81.9872 77.1998H123.712V89.5281H130.146V69.1348H81.9872V77.1998Z" fill="#009FE3"/>
<path d="M97.5574 127.196H130.139V93.6816H97.5574V127.196ZM103.999 101.747H123.712V119.131H103.999V101.747Z" fill="#009FE3"/>
</g>
<defs>
<clipPath id="clip0_61_72">
<rect width="300" height="161" fill="white"/>
</clipPath>
</defs>
</svg>
