<svg width="16" height="16" viewBox="0 0 16 16" fill="none" xmlns="http://www.w3.org/2000/svg">
<mask id="mask0_35_1107" style="mask-type:alpha" maskUnits="userSpaceOnUse" x="0" y="0" width="16" height="16">
<rect width="16" height="16" fill="#D9D9D9"/>
</mask>
<g mask="url(#mask0_35_1107)">
<path d="M7.99951 13.6654C7.85773 13.6654 7.73901 13.6174 7.64334 13.5215C7.54756 13.4258 7.49967 13.307 7.49967 13.1654V8.4987H2.83301C2.69134 8.4987 2.57262 8.45075 2.47684 8.35486C2.38095 8.25898 2.33301 8.1402 2.33301 7.99853C2.33301 7.85675 2.38095 7.73803 2.47684 7.64236C2.57262 7.54659 2.69134 7.4987 2.83301 7.4987H7.49967V2.83203C7.49967 2.69036 7.54762 2.57164 7.64351 2.47586C7.7394 2.37998 7.85817 2.33203 7.99984 2.33203C8.14162 2.33203 8.26034 2.37998 8.35601 2.47586C8.45179 2.57164 8.49967 2.69036 8.49967 2.83203V7.4987H13.1663C13.308 7.4987 13.4267 7.54664 13.5225 7.64253C13.6184 7.73842 13.6663 7.8572 13.6663 7.99886C13.6663 8.14064 13.6184 8.25936 13.5225 8.35503C13.4267 8.45081 13.308 8.4987 13.1663 8.4987H8.49967V13.1654C8.49967 13.307 8.45173 13.4258 8.35584 13.5215C8.25995 13.6174 8.14117 13.6654 7.99951 13.6654Z" fill="#656F83"/>
</g>
</svg>
