<svg id="그룹_9" data-name="그룹 9" xmlns="http://www.w3.org/2000/svg" width="124" height="31.744" viewBox="0 0 124 31.744">
  <g id="그룹_10" data-name="그룹 10">
    <path id="패스_1" data-name="패스 1" d="M374.516,176v3.4h-4.44l.946.708c2.413,2.09,3.016,4.865.757,7.376-4.4,4.885-17.724,4.857-21.968-.238-2.4-2.876-.906-5.99,1.843-7.846h-4.676l-.142-.142V176Zm-15.04,4.281c-2.149.157-6.812,1.4-5.533,4.44,1.077,2.56,6.28,2.871,8.622,2.619,2.115-.227,6.485-1.461,5.291-4.44-1.012-2.524-6.121-2.784-8.379-2.619" transform="translate(-313.11 -159.366)" fill="#174193"/>
    <path id="패스_3" data-name="패스 3" d="M371.515,0V2.835h10.77V6.143h-3.5l.963,1.447c1.161,2.528-.273,4.7-2.388,6.059-3.089,1.986-7.8,2.362-11.36,1.835-4.675-.692-10.884-4.052-6.676-9.341h-3.5V2.835h10.675V0Zm-3.326,6.171c-1.959.128-6.508,1.159-5.133,4.04,1.429,2.994,10.031,2.967,11.844.217.839-1.273.12-2.483-1.031-3.19a10.343,10.343,0,0,0-5.68-1.067" transform="translate(-321.244)" fill="#174193"/>
    <path id="패스_4" data-name="패스 4" d="M1057.137,198v11.058h-22.72c-.316,0-.9-.7-.9-.992V198Zm-4.912,5.86h-13.793v1.8h13.793Z" transform="translate(-933.137 -179.286)" fill="#174193"/>
    <path id="패스_5" data-name="패스 5" d="M20.122,30v3.4H13.037c.252,4.565,2.327,8.612,6.8,10.209l-2.176,2.6c-.427.192-2.448-1.044-2.9-1.353a14.576,14.576,0,0,1-3.372-3.242L10.3,39.735a8.057,8.057,0,0,1-2.7,3.4,16.723,16.723,0,0,1-5.384,3.131L0,43.611A12.377,12.377,0,0,0,6.251,38.57a13.8,13.8,0,0,0,1.5-5.167H.567V30Z" transform="translate(0 -27.165)" fill="#174193"/>
    <path id="패스_7" data-name="패스 7" d="M42.986,219v6.049h18.8v3.4H39.16c-.431,0-1.181-.657-1.181-1.087V219Z" transform="translate(-34.389 -198.302)" fill="#174193"/>
    <path id="패스_8" data-name="패스 8" d="M241.894,25V44.28h-4.865l-.142-.142V25Z" transform="translate(-213.978 -22.637)" fill="#174193"/>
  </g>
</svg>
